<svg id="visual" viewBox="0 0 1260 540" width="1260" height="540" xmlns="http://www.w3.org/2000/svg" xmlns:xlink="http://www.w3.org/1999/xlink" version="1.1"><rect x="0" y="0" width="1260" height="540" fill="#d5d5d5"></rect><path d="M0 305L140 320L280 300L420 346L560 301L700 316L840 346L980 317L1120 324L1260 336L1260 541L1120 541L980 541L840 541L700 541L560 541L420 541L280 541L140 541L0 541Z" fill="#c99d9d"></path><path d="M0 372L140 357L280 391L420 350L560 363L700 366L840 396L980 379L1120 360L1260 380L1260 541L1120 541L980 541L840 541L700 541L560 541L420 541L280 541L140 541L0 541Z" fill="#bb7b77"></path><path d="M0 424L140 450L280 438L420 442L560 439L700 431L840 454L980 438L1120 455L1260 406L1260 541L1120 541L980 541L840 541L700 541L560 541L420 541L280 541L140 541L0 541Z" fill="#aa5a50"></path><path d="M0 512L140 488L280 494L420 459L560 509L700 496L840 481L980 487L1120 465L1260 483L1260 541L1120 541L980 541L840 541L700 541L560 541L420 541L280 541L140 541L0 541Z" fill="#953929"></path></svg>