<?xml version="1.0" standalone="no"?>
<!DOCTYPE svg PUBLIC "-//W3C//DTD SVG 20010904//EN"
 "http://www.w3.org/TR/2001/REC-SVG-20010904/DTD/svg10.dtd">
<svg version="1.0" xmlns="http://www.w3.org/2000/svg"
 width="1024.000000pt" height="1024.000000pt" viewBox="0 0 1024.000000 1024.000000"
 preserveAspectRatio="xMidYMid meet">
<metadata>
Created by potrace 1.14, written by Peter Selinger 2001-2017
</metadata>
<g transform="translate(0.000000,1024.000000) scale(0.100000,-0.100000)"
fill="#000000" stroke="none">
<path d="M5105 10069 c-445 -3 -1506 -7 -2357 -8 l-1548 -1 0 -140 0 -140
-190 0 -190 0 0 -165 0 -165 -175 0 -175 0 0 -180 0 -180 -170 0 -170 0 0
-1432 c0 -788 -3 -2770 -7 -4405 -5 -2557 -4 -2973 8 -2977 8 -3 2078 -6 4602
-8 l4587 -4 0 208 0 208 198 2 197 3 3 197 2 198 183 2 182 3 8 4485 c4 2467
5 4491 2 4498 -3 10 -426 12 -2092 10 -1148 -1 -2452 -5 -2898 -9z m648 -2221
c4 -463 7 -1002 7 -1198 l0 -358 -1197 -4 c-659 -3 -1200 -3 -1202 -1 -6 4 -4
511 4 1551 l7 852 1188 0 1187 0 6 -842z m-2830 -2009 c6 -23 -3 -2323 -9
-2329 -6 -6 -1823 -8 -2156 -3 l-208 4 0 1172 0 1172 1184 0 c1070 0 1185 -2
1189 -16z m5496 11 l24 0 -5 -1164 c-3 -640 -9 -1169 -13 -1175 -7 -12 -2199
-16 -2230 -5 -13 6 -15 131 -15 1180 l0 1173 1108 -5 c609 -2 1118 -4 1131 -4z
m12 -2786 c7 -4 9 -350 6 -1180 -2 -646 -6 -1176 -8 -1178 -2 -2 -509 -6
-1126 -10 l-1123 -7 0 1197 0 1197 1120 -6 c616 -3 1125 -9 1131 -13z"/>
</g>
</svg>
