<?xml version="1.0" standalone="no"?>
<!DOCTYPE svg PUBLIC "-//W3C//DTD SVG 20010904//EN"
 "http://www.w3.org/TR/2001/REC-SVG-20010904/DTD/svg10.dtd">
<svg version="1.0" xmlns="http://www.w3.org/2000/svg"
 width="1024.000000pt" height="1024.000000pt" viewBox="0 0 1024.000000 1024.000000"
 preserveAspectRatio="xMidYMid meet">
<metadata>
Created by potrace 1.14, written by Peter Selinger 2001-2017
</metadata>
<g transform="translate(0.000000,1024.000000) scale(0.100000,-0.100000)"
fill="#000000" stroke="none">
<path d="M1087 10123 c-4 -3 -7 -64 -7 -135 0 -71 -5 -138 -10 -149 -10 -18
-23 -19 -195 -19 l-185 0 0 -160 0 -160 -177 -2 -178 -3 -3 -182 -2 -183 -155
0 -155 0 0 -4505 0 -4505 4698 2 4697 3 3 193 2 192 200 0 200 0 0 205 0 205
193 2 192 3 1 4603 1 4602 -4557 0 c-2506 0 -4560 -3 -4563 -7z m4687 -2627
c7 -1034 6 -1240 -5 -1247 -7 -4 -572 -7 -1254 -6 l-1240 2 -3 455 c-2 250 0
812 4 1248 l6 792 1242 -2 1241 -3 9 -1239z m-5168 1215 c-5 -8 -56 -3 -56 5
0 2 14 4 31 4 16 0 28 -4 25 -9z m134 -1 c0 -5 -7 -7 -15 -4 -24 10 -64 -22
-58 -46 3 -11 1 -20 -4 -20 -5 0 -10 16 -11 35 -1 28 2 33 15 28 10 -4 14 -2
10 4 -4 6 8 10 28 11 19 1 35 -3 35 -8z m66 -6 c-3 -9 -6 -22 -6 -30 0 -24
-17 -16 -22 11 -5 22 3 32 26 34 4 1 5 -6 2 -15z m136 -1 c18 -16 18 -16 12 0
-5 13 0 17 19 17 14 0 29 -4 32 -10 3 -5 1 -10 -4 -10 -6 0 -11 -9 -11 -21 0
-11 5 -17 10 -14 6 3 10 -3 10 -14 0 -24 -15 -28 -24 -6 -8 23 -28 18 -21 -5
5 -14 2 -20 -9 -20 -9 0 -16 6 -16 14 0 9 -7 13 -20 11 -11 -2 -20 0 -20 6 0
5 11 9 25 9 14 0 25 5 25 10 0 6 -10 8 -24 4 -28 -7 -43 11 -26 31 16 19 19
19 42 -2z m190 -1 c7 -7 13 -18 13 -24 0 -18 23 -21 28 -3 4 11 4 11 3 -2 -1
-13 -9 -17 -26 -15 -24 2 -24 2 -5 -12 17 -12 21 -12 37 7 23 26 23 38 -2 44
-29 8 -25 21 5 15 23 -4 30 -17 26 -50 -1 -8 9 -12 28 -10 16 1 27 6 25 10 -3
5 -10 6 -15 3 -11 -7 -11 -3 -3 19 10 27 32 18 40 -16 4 -18 9 -28 11 -21 4
12 21 10 61 -10 32 -15 56 2 60 42 4 35 27 51 45 31 9 -10 9 -11 -2 -5 -13 7
-31 -9 -31 -30 0 -5 4 -4 9 4 8 12 12 12 26 -2 15 -16 15 -17 -6 -17 -33 0
-13 -14 22 -16 25 -1 29 1 23 19 -5 17 -4 18 9 6 8 -8 14 -16 14 -19 -1 -3 6
-16 16 -30 17 -24 17 -24 17 -2 0 12 -4 22 -10 22 -5 0 -10 8 -10 17 0 14 3
14 20 -5 11 -12 20 -25 20 -30 0 -5 7 -9 14 -9 12 0 13 5 5 20 -8 14 -7 22 2
31 9 8 10 8 5 -1 -10 -18 10 -16 28 3 32 32 8 48 -30 19 -24 -18 -34 -19 -34
-1 0 8 -6 17 -12 20 -7 3 -3 3 10 0 12 -3 22 -1 22 5 0 13 49 14 68 2 11 -7
10 -16 -7 -48 -22 -45 -19 -55 14 -47 12 3 38 -1 58 -9 19 -8 39 -12 43 -7 5
4 26 13 47 20 23 7 37 18 37 28 0 11 3 13 8 5 5 -8 11 -8 24 1 10 7 14 17 10
21 -4 5 -1 5 6 1 7 -5 11 -14 8 -22 -6 -16 3 -18 24 -4 8 5 11 10 5 10 -5 0
-3 5 5 10 10 6 11 10 3 10 -7 0 -13 8 -13 17 0 15 2 14 14 -2 8 -11 12 -23 10
-27 -3 -5 2 -8 11 -8 10 0 13 4 9 12 -5 7 5 3 20 -10 33 -25 64 -29 72 -8 6
16 34 11 34 -6 0 -5 -5 -6 -11 -3 -10 7 -49 -21 -49 -35 0 -4 11 -19 25 -34
14 -15 25 -22 25 -17 0 6 10 11 22 11 12 0 18 3 15 7 -8 7 11 33 25 33 6 0 8
-6 5 -13 -3 -7 2 -22 10 -32 15 -19 15 -19 10 2 -3 13 -1 26 4 29 5 3 9 0 9
-5 0 -21 18 -11 24 14 4 14 11 25 17 25 6 0 6 -8 -2 -22 -10 -19 -9 -20 7 -13
11 4 27 8 36 9 21 3 37 16 19 16 -8 0 -7 5 4 16 8 9 22 13 31 10 8 -3 12 -2 9
3 -3 5 -1 12 5 16 5 3 10 1 10 -4 0 -6 7 -11 15 -11 8 0 15 4 15 10 0 5 7 7
15 4 14 -6 13 -8 -2 -20 -17 -13 -17 -13 2 -15 11 -1 26 -1 34 0 7 2 10 -3 6
-9 -4 -6 -15 -8 -26 -5 -11 4 -19 3 -18 -2 1 -4 1 -16 0 -26 -1 -15 -5 -16
-21 -7 -16 9 -20 8 -20 -5 0 -12 -6 -15 -20 -10 -16 5 -20 2 -20 -14 0 -12 7
-21 15 -21 8 0 15 5 15 11 0 6 7 8 16 5 21 -8 44 11 44 35 0 11 7 19 16 19 10
0 14 -6 11 -14 -7 -19 13 -26 54 -19 50 7 51 17 2 10 -33 -4 -43 -2 -43 9 0 8
7 14 15 14 8 0 15 4 15 9 0 15 -31 42 -41 36 -5 -4 -6 0 -3 8 3 8 16 13 29 11
14 -1 27 2 31 7 7 12 24 12 24 -1 0 -5 -6 -10 -14 -10 -8 0 -18 -5 -22 -12 -5
-7 -2 -8 7 -3 11 6 11 5 2 -5 -6 -7 -9 -19 -6 -26 9 -23 23 -16 23 12 0 22 3
24 14 15 8 -7 29 -13 46 -13 20 -1 27 -4 18 -9 -10 -7 -10 -11 0 -21 10 -10
14 -9 18 9 5 17 10 20 28 14 11 -5 30 -5 41 -1 11 4 23 6 27 3 4 -2 5 4 1 13
-4 12 -2 15 8 12 8 -3 19 6 26 20 15 29 17 44 3 22 -9 -13 -11 -13 -19 -1 -8
13 -18 12 -73 -4 -35 -10 -67 -22 -73 -27 -5 -4 -13 -8 -19 -8 -5 0 -1 6 10
14 26 19 19 24 -48 30 -42 4 -57 2 -55 -7 1 -7 -4 -11 -11 -9 -7 1 -24 3 -38
4 -31 3 -26 22 7 25 95 9 166 7 162 -4 -3 -7 -1 -13 5 -13 5 0 12 7 16 15 8
23 226 22 226 -1 0 -8 -4 -13 -9 -10 -5 4 -7 -4 -4 -16 4 -22 4 -23 -11 -4
-15 18 -16 18 -16 2 0 -9 -4 -14 -10 -11 -15 9 -30 -4 -23 -20 6 -18 29 -20
37 -2 3 6 3 2 0 -10 -6 -25 5 -30 24 -11 9 9 12 4 13 -22 1 -19 0 -39 -1 -45
-1 -5 -3 -22 -4 -38 -1 -22 -3 -25 -12 -12 -14 19 -28 20 -21 0 4 -8 2 -17 -3
-20 -13 -8 -13 -45 1 -45 6 0 8 8 5 18 -4 13 -1 18 14 18 22 0 27 -21 8 -29
-8 -3 -6 -6 5 -6 21 -1 22 -14 2 -31 -11 -9 -12 -15 -5 -20 14 -8 22 -110 9
-110 -9 0 -11 8 -13 57 -1 13 -5 22 -11 22 -5 0 -9 -9 -7 -21 3 -14 0 -18 -10
-12 -7 4 -10 4 -6 -1 4 -4 3 -14 -3 -22 -8 -8 -8 -13 -1 -13 6 0 12 6 15 13 2
6 8 9 12 5 5 -5 1 -16 -8 -26 -10 -10 -17 -21 -17 -24 0 -8 27 -4 36 5 14 14
22 7 17 -14 -3 -12 -11 -18 -19 -15 -8 3 -14 1 -14 -4 0 -6 9 -10 21 -10 17 0
20 -6 20 -47 0 -27 2 -162 5 -301 5 -223 4 -253 -10 -258 -20 -8 -21 -24 -1
-24 12 0 15 -17 14 -95 -2 -90 -12 -126 -25 -91 -3 9 -10 16 -15 16 -10 0 1
-32 14 -41 5 -4 7 -19 3 -34 -5 -20 -10 -25 -18 -17 -8 8 -8 15 0 25 9 11 6
19 -16 38 -15 13 -24 20 -20 16 3 -5 2 -22 -2 -38 -7 -22 -5 -31 8 -39 15 -8
15 -11 2 -19 -12 -8 -12 -13 -2 -23 8 -8 12 -8 12 -1 0 6 8 13 18 17 9 3 22 8
27 11 14 7 17 -36 4 -51 -6 -7 -9 -21 -7 -31 2 -15 -3 -18 -29 -17 -18 1 -33
-2 -33 -6 0 -13 51 -22 64 -11 8 7 12 5 13 -9 1 -10 -5 -24 -13 -31 -12 -10
-13 -9 -9 3 5 12 0 14 -19 11 -27 -6 -36 -23 -12 -23 8 0 18 -5 22 -12 5 -7 2
-9 -9 -5 -12 4 -14 2 -10 -10 4 -11 2 -14 -5 -9 -8 5 -10 2 -6 -9 5 -12 9 -13
21 -4 11 10 13 9 11 -2 -3 -13 -40 -49 -51 -49 -3 0 -7 10 -10 22 -4 12 -10
19 -14 15 -10 -11 -13 -37 -3 -37 4 0 10 -9 13 -20 3 -11 1 -20 -4 -20 -5 0
-9 -4 -9 -10 0 -5 7 -7 15 -4 9 4 13 13 10 24 -6 18 38 45 56 35 5 -3 6 0 4 7
-3 8 1 22 9 33 15 19 15 18 16 -13 0 -18 -5 -43 -11 -54 -9 -16 -8 -19 2 -13
9 6 10 2 5 -16 -4 -13 -6 -28 -5 -34 1 -5 4 -164 6 -352 l4 -342 -511 -1
c-405 0 -510 2 -511 12 0 10 -2 10 -6 1 -2 -7 -20 -13 -40 -13 -31 0 -33 1
-19 16 18 18 21 44 5 44 -6 0 -13 -9 -16 -20 -3 -11 -10 -20 -15 -20 -5 0 -6
-5 -3 -11 5 -7 -44 -9 -157 -8 -150 2 -165 4 -187 23 l-23 21 6 -22 7 -22
-480 -1 -481 0 0 491 c0 389 3 489 12 483 10 -6 10 -5 1 7 -15 18 -17 592 -2
583 5 -3 9 -1 9 5 0 5 -4 13 -10 16 -15 9 -12 46 5 79 14 26 14 30 -2 42 -15
11 -15 15 -4 23 9 6 10 14 3 27 -10 21 -17 423 -7 412 11 -11 45 25 45 49 0
20 3 21 24 13 19 -7 28 -5 42 11 9 10 20 17 22 14 3 -3 -10 -21 -28 -40 -26
-26 -30 -35 -17 -35 9 0 17 7 17 14 0 11 11 15 38 14 20 -1 48 2 62 7 25 8 25
7 6 -13 -14 -16 -25 -20 -50 -15 -29 6 -30 5 -16 -12 14 -17 13 -18 -12 -13
-18 3 -33 -1 -43 -12 -14 -16 -14 -18 5 -23 11 -3 20 -11 20 -17 0 -7 -7 -10
-16 -6 -8 3 -12 2 -9 -4 3 -6 15 -10 26 -10 14 0 19 7 19 26 0 22 2 25 15 14
11 -10 18 -10 29 -1 11 9 15 9 19 -1 4 -10 8 -10 16 2 14 20 14 40 -1 40 -6 0
-4 6 6 13 9 7 18 22 18 34 2 13 7 19 16 16 8 -4 10 -8 3 -12 -5 -4 10 -6 34
-6 24 0 43 2 43 5 -1 3 2 13 6 22 6 12 16 15 42 11 19 -3 34 -3 34 0 0 16 -24
57 -34 57 -17 0 12 23 33 27 16 2 20 -3 20 -25 0 -50 4 -61 23 -59 21 1 23 10
6 29 -7 7 -14 23 -15 34 -3 29 49 53 72 34 8 -7 24 -10 35 -7 11 3 20 2 20 -2
0 -4 9 -7 20 -7 10 0 17 2 15 4 -2 2 0 14 5 27 6 17 5 27 -5 35 -12 10 -11 15
7 29 24 20 82 21 100 3z m246 12 c16 -5 22 -13 19 -30 -4 -28 -17 -44 -17 -20
0 9 -7 19 -16 23 -13 5 -13 7 -2 14 10 7 9 9 -4 9 -13 0 -18 -8 -18 -25 0 -14
-5 -25 -11 -25 -6 0 -8 7 -5 16 4 12 2 15 -9 10 -8 -3 -15 -1 -15 4 0 6 7 10
15 10 8 0 15 5 15 10 0 11 15 12 48 4z m449 -7 c0 -8 -6 -14 -14 -14 -17 0
-17 14 0 20 6 3 12 6 13 6 0 1 1 -5 1 -12z m313 -7 c0 -4 -7 -10 -15 -14 -8
-3 -15 -1 -15 5 0 6 -9 8 -20 4 -11 -3 -20 -2 -20 3 0 6 5 12 12 14 17 6 58
-3 58 -12z m-1269 5 c0 0 2 -19 5 -42 4 -31 1 -43 -8 -44 -7 -1 -31 -2 -53 -3
-31 -1 -40 -5 -39 -18 1 -11 -5 -18 -17 -18 -10 0 -19 -4 -19 -9 0 -15 18 -23
25 -11 4 7 13 7 26 0 11 -6 17 -15 14 -21 -10 -15 -25 -10 -26 9 0 10 -3 12
-6 5 -2 -7 -11 -13 -19 -13 -8 0 -14 -6 -14 -14 0 -17 -33 -31 -38 -17 -2 6
-12 11 -23 11 -10 0 -19 5 -19 11 0 5 5 7 10 4 6 -3 13 0 16 9 3 8 11 13 19
10 7 -3 15 5 19 20 4 17 11 23 21 20 20 -8 19 5 -1 27 -9 10 -23 15 -31 12 -9
-4 -11 -8 -4 -12 13 -9 2 -52 -13 -50 -6 1 -23 -3 -38 -9 -26 -11 -33 -22 -29
-46 1 -5 -8 -6 -21 -2 -13 3 -26 6 -30 6 -5 0 -8 5 -8 11 0 6 9 8 20 4 25 -8
28 20 3 33 -19 11 -11 42 11 42 9 0 12 -7 9 -20 -7 -26 16 -26 49 -1 16 13 25
31 26 57 3 46 9 54 19 28 5 -10 15 -19 23 -19 8 0 19 -9 25 -21 9 -17 14 -19
30 -10 29 16 45 40 33 47 -7 4 -6 9 1 13 6 4 9 10 7 14 -2 4 7 7 20 7 13 0 24
0 25 0z m659 -5 c-20 -13 -33 -13 -25 0 3 6 14 10 23 10 15 0 15 -2 2 -10z
m183 -10 c4 0 5 5 2 10 -4 6 9 10 32 10 38 -1 38 -1 13 -15 -36 -20 -80 -19
-80 2 0 13 3 14 12 5 7 -7 16 -12 21 -12z m197 10 c0 -5 -7 -7 -15 -4 -8 4
-15 8 -15 10 0 2 7 4 15 4 8 0 15 -4 15 -10z m80 6 c0 -3 -4 -8 -10 -11 -5 -3
-10 -1 -10 4 0 6 5 11 10 11 6 0 10 -2 10 -4z m213 -3 c-7 -2 -19 -2 -25 0 -7
3 -2 5 12 5 14 0 19 -2 13 -5z m122 -3 c-3 -5 -11 -10 -16 -10 -6 0 -7 5 -4
10 3 6 11 10 16 10 6 0 7 -4 4 -10z m-445 -21 c0 -5 -10 -9 -21 -9 -18 0 -19
2 -9 15 12 15 30 12 30 -6z m-1115 1 c-3 -5 -12 -10 -20 -10 -8 0 -17 5 -20
10 -4 6 5 10 20 10 15 0 24 -4 20 -10z m1892 -30 c4 0 15 7 25 17 25 22 34 9
11 -14 -27 -27 -53 -36 -53 -18 0 9 -9 15 -22 15 -23 0 -23 1 2 13 20 11 26
11 28 0 2 -7 6 -13 9 -13z m-1292 10 c3 -5 1 -10 -4 -10 -6 0 -11 5 -11 10 0
6 2 10 4 10 3 0 8 -4 11 -10z m325 0 c0 9 6 4 13 -10 8 -14 12 -27 10 -29 -5
-7 -43 31 -43 43 0 6 5 4 10 -4 9 -13 10 -13 10 0z m128 -5 c-2 -5 -6 -9 -10
-7 -5 1 -8 -2 -8 -6 0 -12 -50 -33 -61 -27 -5 4 -9 11 -9 16 0 6 5 7 10 4 6
-3 13 0 16 9 3 8 12 12 20 9 8 -3 14 0 14 7 0 6 7 10 16 8 8 -2 14 -7 12 -13z
m329 8 c-9 -2 -15 -9 -12 -14 8 -12 -4 -31 -16 -24 -14 9 9 45 29 44 16 -1 15
-2 -1 -6z m88 -11 c-3 -3 -11 0 -18 7 -9 10 -8 11 6 5 10 -3 15 -9 12 -12z
m-1596 -29 c8 -15 8 -23 1 -23 -5 0 -10 7 -10 15 0 8 -8 15 -17 15 -15 0 -16
2 -3 10 8 5 15 8 16 7 1 -1 7 -12 13 -24z m-204 -21 c-3 -3 -11 0 -18 7 -9 10
-8 11 6 5 10 -3 15 -9 12 -12z m1675 -8 c0 -8 -4 -12 -10 -9 -5 3 -10 10 -10
16 0 5 5 9 10 9 6 0 10 -7 10 -16z m-1590 -35 c0 -6 -4 -7 -10 -4 -5 3 -10 11
-10 16 0 6 5 7 10 4 6 -3 10 -11 10 -16z m-83 -75 c2 -6 -3 -11 -12 -11 -8 0
-15 7 -15 15 0 15 22 12 27 -4z m2353 -1125 c0 -5 -4 -9 -10 -9 -5 0 -10 7
-10 16 0 8 5 12 10 9 6 -3 10 -10 10 -16z m43 -224 c-3 -9 -8 -14 -10 -11 -3
3 -2 9 2 15 9 16 15 13 8 -4z m25 -2267 c-2 -530 -4 -1081 -6 -1226 l-3 -262
-1227 2 -1227 3 -3 1223 -2 1222 1235 0 1236 0 -3 -962z m5676 172 c0 -835
-10 -1650 -20 -1659 -5 -5 -2325 -2 -2331 3 -5 5 -14 2426 -9 2435 5 8 314 10
1184 9 l1177 -3 -1 -785z m-9 -3303 c0 -1080 -2 -1229 -15 -1237 -9 -6 -461
-10 -1172 -10 l-1158 0 0 1240 0 1240 1173 -2 1172 -3 0 -1228z"/>
<path d="M1036 8692 c-10 -17 0 -29 28 -34 17 -4 23 -1 19 9 -3 7 -11 13 -18
13 -7 0 -15 5 -17 12 -3 9 -6 9 -12 0z"/>
<path d="M1094 8688 c-5 -7 -3 -8 6 -3 10 6 12 4 7 -8 -8 -21 0 -22 18 -3 8 7
11 16 8 20 -10 10 -31 7 -39 -6z"/>
<path d="M1401 8625 l-24 -12 26 -5 c15 -3 24 -2 22 3 -3 4 3 9 12 11 15 3 16
5 2 10 -8 3 -26 0 -38 -7z"/>
<path d="M1936 8625 c-3 -8 -1 -15 4 -15 6 0 10 7 10 15 0 8 -2 15 -4 15 -2 0
-6 -7 -10 -15z"/>
<path d="M1042 8618 c3 -14 23 -38 32 -38 15 0 4 30 -14 40 -16 8 -20 8 -18
-2z"/>
<path d="M1260 8620 c0 -5 4 -10 9 -10 6 0 13 5 16 10 3 6 -1 10 -9 10 -9 0
-16 -4 -16 -10z"/>
<path d="M1879 8612 c-1 -21 -4 -33 -9 -49 -1 -5 -2 -11 -1 -15 0 -5 -4 -8
-11 -8 -9 0 -9 -3 -1 -11 7 -7 17 -8 25 -3 7 5 19 9 26 10 22 4 26 12 13 28
-7 8 -10 19 -7 24 3 5 -3 17 -14 27 -19 17 -20 17 -21 -3z m34 -65 c-4 -6 -9
-3 -14 9 -4 10 -8 13 -8 7 -1 -7 -6 -13 -12 -13 -8 0 -8 5 1 15 10 12 16 13
26 4 8 -6 11 -16 7 -22z"/>
<path d="M2002 8623 c-7 -3 -17 -13 -22 -24 -8 -15 -7 -19 5 -19 8 0 15 6 15
14 0 8 6 16 13 19 6 2 10 7 7 9 -3 3 -11 3 -18 1z"/>
<path d="M2325 8620 c19 -8 19 -9 -2 -9 -28 -1 -30 -27 -3 -34 13 -3 21 1 25
14 8 24 -1 39 -23 38 -14 0 -13 -2 3 -9z"/>
<path d="M1110 8613 c0 -1 9 -7 19 -12 14 -8 22 -7 31 4 11 13 8 15 -19 13
-17 -1 -31 -3 -31 -5z"/>
<path d="M1817 8613 c-11 -3 -16 -10 -13 -20 3 -8 6 -17 6 -19 0 -13 20 -1 25
16 4 11 11 18 16 15 5 -4 9 -1 9 4 0 11 -11 12 -43 4z"/>
<path d="M2530 8616 c0 -2 7 -7 16 -10 8 -3 12 -2 9 4 -6 10 -25 14 -25 6z"/>
<path d="M1500 8596 c0 -8 -6 -17 -12 -20 -7 -2 -2 -3 12 -1 14 2 29 4 33 4 9
1 -18 31 -27 31 -3 0 -6 -6 -6 -14z"/>
<path d="M2661 8596 c-13 -15 4 -26 39 -26 10 0 21 -5 23 -10 3 -6 4 -5 3 2
-2 7 4 19 13 26 14 11 13 12 -6 3 -28 -14 -29 -14 -46 4 -13 12 -17 12 -26 1z"/>
<path d="M1651 8584 c0 -11 3 -14 6 -6 3 7 2 16 -1 19 -3 4 -6 -2 -5 -13z"/>
<path d="M2780 8580 c0 -17 2 -19 14 -8 14 13 12 28 -5 28 -5 0 -9 -9 -9 -20z"/>
<path d="M986 8578 c3 -4 9 -8 15 -8 5 0 9 4 9 8 0 5 -7 9 -15 9 -8 0 -12 -4
-9 -9z"/>
<path d="M1320 8583 c0 -6 8 -17 18 -24 16 -13 16 -13 2 6 -8 11 -16 22 -17
24 -2 2 -3 0 -3 -6z"/>
<path d="M1694 8583 c4 -7 2 -13 -4 -13 -6 0 -8 -5 -4 -11 4 -8 9 -8 17 0 8 8
7 14 -2 24 -11 10 -13 10 -7 0z"/>
<path d="M2523 8563 c-28 -28 -28 -32 -5 -28 9 2 20 4 25 4 4 1 7 9 7 19 0 14
2 15 10 2 8 -13 10 -13 10 1 0 27 -23 27 -47 2z"/>
<path d="M2631 8574 c0 -11 3 -14 6 -6 3 7 2 16 -1 19 -3 4 -6 -2 -5 -13z"/>
<path d="M1040 8564 c0 -8 5 -12 10 -9 6 4 8 11 5 16 -9 14 -15 11 -15 -7z"/>
<path d="M1166 8567 c3 -10 9 -15 12 -12 3 3 0 11 -7 18 -10 9 -11 8 -5 -6z"/>
<path d="M1376 8568 c3 -4 11 -5 19 -1 21 7 19 12 -4 10 -11 0 -18 -5 -15 -9z"/>
<path d="M1545 8570 c-3 -5 1 -10 10 -10 9 0 13 5 10 10 -3 6 -8 10 -10 10 -2
0 -7 -4 -10 -10z"/>
<path d="M2015 8570 c-3 -5 -2 -10 4 -10 5 0 13 5 16 10 3 6 2 10 -4 10 -5 0
-13 -4 -16 -10z"/>
<path d="M898 8563 c7 -3 16 -2 19 1 4 3 -2 6 -13 5 -11 0 -14 -3 -6 -6z"/>
<path d="M1288 8543 c5 -25 6 -25 13 -8 11 29 10 35 -5 35 -9 0 -12 -8 -8 -27z"/>
<path d="M2246 8556 c4 -12 2 -15 -9 -10 -8 3 -18 0 -22 -6 -4 -7 4 -10 24 -8
35 3 38 9 16 28 -13 11 -14 10 -9 -4z"/>
<path d="M1086 8544 c-8 -22 -4 -25 11 -9 7 8 9 16 4 19 -5 3 -12 -1 -15 -10z"/>
<path d="M1637 8540 c-3 -11 -1 -23 4 -26 5 -3 9 6 9 20 0 31 -6 34 -13 6z"/>
<path d="M2666 8545 c4 -8 10 -15 16 -15 5 0 6 -5 2 -12 -4 -6 -3 -8 4 -5 14
9 3 47 -14 47 -8 0 -11 -6 -8 -15z"/>
<path d="M1120 8541 c0 -5 5 -13 10 -16 6 -3 10 -2 10 4 0 5 -4 13 -10 16 -5
3 -10 2 -10 -4z"/>
<path d="M930 8530 c-13 -8 -12 -10 3 -10 9 0 17 5 17 10 0 12 -1 12 -20 0z"/>
<path d="M992 8531 c-11 -7 -11 -9 0 -14 9 -3 15 1 15 9 0 8 -1 14 -1 14 -1 0
-7 -4 -14 -9z"/>
<path d="M2448 8523 c7 -3 16 -2 19 1 4 3 -2 6 -13 5 -11 0 -14 -3 -6 -6z"/>
<path d="M2150 8511 c0 -5 7 -12 16 -15 14 -5 15 -4 4 9 -14 17 -20 19 -20 6z"/>
<path d="M2260 8510 c0 -5 5 -10 11 -10 5 0 7 5 4 10 -3 6 -8 10 -11 10 -2 0
-4 -4 -4 -10z"/>
<path d="M1936 8497 c3 -10 9 -15 12 -12 3 3 0 11 -7 18 -10 9 -11 8 -5 -6z"/>
<path d="M1000 8489 c0 -5 -4 -7 -10 -4 -6 3 -7 -1 -4 -9 5 -13 8 -13 20 -1
16 16 18 25 4 25 -5 0 -10 -5 -10 -11z"/>
<path d="M1335 8489 c-4 -6 -5 -12 -2 -15 2 -3 7 2 10 11 7 17 1 20 -8 4z"/>
<path d="M1720 8489 c0 -5 5 -7 10 -4 6 3 10 8 10 11 0 2 -4 4 -10 4 -5 0 -10
-5 -10 -11z"/>
<path d="M2381 8486 c-7 -8 -8 -17 -3 -20 6 -3 13 1 16 10 9 23 2 28 -13 10z"/>
<path d="M2695 8490 c-5 -7 0 -11 11 -9 11 2 25 0 33 -5 9 -6 12 -5 9 5 -6 18
-44 24 -53 9z"/>
<path d="M1398 8483 c7 -3 16 -2 19 1 4 3 -2 6 -13 5 -11 0 -14 -3 -6 -6z"/>
<path d="M2015 8470 c-3 -5 -1 -10 4 -10 6 0 11 5 11 10 0 6 -2 10 -4 10 -3 0
-8 -4 -11 -10z"/>
<path d="M2220 8460 c0 -12 7 -20 18 -20 13 0 14 2 3 9 -7 5 -10 14 -7 20 4 6
2 11 -3 11 -6 0 -11 -9 -11 -20z"/>
<path d="M740 8451 c0 -21 26 -28 43 -11 16 16 16 17 -13 18 -16 0 -30 -3 -30
-7z"/>
<path d="M825 8449 c-4 -6 -5 -12 -2 -15 2 -3 7 2 10 11 7 17 1 20 -8 4z"/>
<path d="M1230 8450 c-13 -8 -12 -10 3 -10 9 0 17 5 17 10 0 12 -1 12 -20 0z"/>
<path d="M2790 8420 c0 -5 5 -10 10 -10 6 0 10 5 10 10 0 6 -4 10 -10 10 -5 0
-10 -4 -10 -10z"/>
<path d="M430 8399 c-13 -24 -4 -41 10 -19 10 16 13 40 5 40 -2 0 -9 -9 -15
-21z"/>
<path d="M1895 8410 c-3 -5 1 -10 9 -10 9 0 16 5 16 10 0 6 -4 10 -9 10 -6 0
-13 -4 -16 -10z"/>
<path d="M910 8390 c0 -5 -11 -10 -25 -10 -15 0 -25 -6 -25 -14 0 -9 7 -12 19
-9 23 6 60 43 43 43 -7 0 -12 -4 -12 -10z"/>
<path d="M456 8364 c-4 -10 -2 -22 3 -27 7 -7 13 -5 17 7 4 10 2 22 -3 27 -7
7 -13 5 -17 -7z"/>
<path d="M1165 8370 c-3 -5 -1 -10 4 -10 6 0 11 5 11 10 0 6 -2 10 -4 10 -3 0
-8 -4 -11 -10z"/>
<path d="M630 8359 c0 -5 5 -7 10 -4 6 3 10 8 10 11 0 2 -4 4 -10 4 -5 0 -10
-5 -10 -11z"/>
<path d="M783 8363 c9 -2 23 -2 30 0 6 3 -1 5 -18 5 -16 0 -22 -2 -12 -5z"/>
<path d="M2731 8344 c0 -11 3 -14 6 -6 3 7 2 16 -1 19 -3 4 -6 -2 -5 -13z"/>
<path d="M501 8334 c0 -11 3 -14 6 -6 3 7 2 16 -1 19 -3 4 -6 -2 -5 -13z"/>
<path d="M1320 8340 c0 -5 5 -10 10 -10 6 0 10 5 10 10 0 6 -4 10 -10 10 -5 0
-10 -4 -10 -10z"/>
<path d="M2421 8334 c0 -11 3 -14 6 -6 3 7 2 16 -1 19 -3 4 -6 -2 -5 -13z"/>
<path d="M640 8330 c0 -5 5 -10 10 -10 6 0 10 5 10 10 0 6 -4 10 -10 10 -5 0
-10 -4 -10 -10z"/>
<path d="M430 8303 c0 -15 2 -16 10 -3 9 13 11 13 21 0 9 -13 10 -13 6 0 -6
22 -37 25 -37 3z"/>
<path d="M795 8281 c-3 -5 -1 -12 5 -16 5 -3 10 1 10 9 0 18 -6 21 -15 7z"/>
<path d="M1000 8274 c0 -20 27 -37 36 -23 4 7 3 9 -4 5 -6 -3 -15 2 -21 11 -6
10 -11 13 -11 7z"/>
<path d="M946 8245 c-11 -8 -15 -15 -9 -15 6 0 16 7 23 15 16 19 11 19 -14 0z"/>
<path d="M1895 8230 c-3 -5 -1 -10 4 -10 6 0 11 5 11 10 0 6 -2 10 -4 10 -3 0
-8 -4 -11 -10z"/>
<path d="M2485 8210 c-3 -5 -1 -10 4 -10 6 0 11 5 11 10 0 6 -2 10 -4 10 -3 0
-8 -4 -11 -10z"/>
<path d="M630 8200 c0 -13 11 -13 30 0 12 8 11 10 -7 10 -13 0 -23 -4 -23 -10z"/>
<path d="M1935 8200 c3 -5 8 -10 11 -10 2 0 4 5 4 10 0 6 -5 10 -11 10 -5 0
-7 -4 -4 -10z"/>
<path d="M896 8191 c-4 -7 -5 -15 -2 -18 9 -9 19 4 14 18 -4 11 -6 11 -12 0z"/>
<path d="M2631 8154 c0 -11 3 -14 6 -6 3 7 2 16 -1 19 -3 4 -6 -2 -5 -13z"/>
<path d="M2775 8160 c-3 -5 -1 -10 4 -10 6 0 11 5 11 10 0 6 -2 10 -4 10 -3 0
-8 -4 -11 -10z"/>
<path d="M420 8140 c0 -5 5 -10 10 -10 6 0 10 5 10 10 0 6 -4 10 -10 10 -5 0
-10 -4 -10 -10z"/>
<path d="M590 8110 c0 -5 5 -10 11 -10 5 0 7 5 4 10 -3 6 -8 10 -11 10 -2 0
-4 -4 -4 -10z"/>
<path d="M2465 8100 c3 -5 8 -10 11 -10 2 0 4 5 4 10 0 6 -5 10 -11 10 -5 0
-7 -4 -4 -10z"/>
<path d="M1511 8074 c0 -11 3 -14 6 -6 3 7 2 16 -1 19 -3 4 -6 -2 -5 -13z"/>
<path d="M510 8055 c-8 -9 -8 -15 -2 -15 12 0 26 19 19 26 -2 2 -10 -2 -17
-11z"/>
<path d="M815 8060 c3 -5 11 -10 16 -10 6 0 7 5 4 10 -3 6 -11 10 -16 10 -6 0
-7 -4 -4 -10z"/>
<path d="M1878 8063 c6 -2 18 -2 25 0 6 3 1 5 -13 5 -14 0 -19 -2 -12 -5z"/>
<path d="M610 8040 c0 -5 5 -10 10 -10 6 0 10 5 10 10 0 6 -4 10 -10 10 -5 0
-10 -4 -10 -10z"/>
<path d="M510 8005 c-11 -13 -9 -20 13 -43 15 -16 27 -34 27 -41 0 -7 5 -9 10
-6 14 9 12 21 -6 39 -8 9 -12 20 -9 26 3 5 -1 10 -9 10 -10 0 -13 6 -10 15 8
19 0 19 -16 0z"/>
<path d="M635 7970 c3 -5 11 -10 16 -10 6 0 7 5 4 10 -3 6 -11 10 -16 10 -6 0
-7 -4 -4 -10z"/>
<path d="M2815 7919 c-4 -6 -5 -12 -2 -15 2 -3 7 2 10 11 7 17 1 20 -8 4z"/>
<path d="M636 7906 c3 -9 11 -16 16 -16 13 0 5 23 -10 28 -7 2 -10 -2 -6 -12z"/>
<path d="M700 7909 c0 -5 5 -7 10 -4 6 3 10 8 10 11 0 2 -4 4 -10 4 -5 0 -10
-5 -10 -11z"/>
<path d="M570 7899 c0 -5 5 -7 10 -4 6 3 10 8 10 11 0 2 -4 4 -10 4 -5 0 -10
-5 -10 -11z"/>
<path d="M2005 7890 c3 -5 8 -10 11 -10 2 0 4 5 4 10 0 6 -5 10 -11 10 -5 0
-7 -4 -4 -10z"/>
<path d="M445 7880 c3 -5 10 -10 16 -10 5 0 9 5 9 10 0 6 -7 10 -16 10 -8 0
-12 -4 -9 -10z"/>
<path d="M528 7883 c7 -3 16 -2 19 1 4 3 -2 6 -13 5 -11 0 -14 -3 -6 -6z"/>
<path d="M566 7871 c-4 -7 -5 -15 -2 -18 9 -9 19 4 14 18 -4 11 -6 11 -12 0z"/>
<path d="M636 7855 c4 -8 8 -15 10 -15 2 0 4 7 4 15 0 8 -4 15 -10 15 -5 0 -7
-7 -4 -15z"/>
<path d="M520 7844 c0 -8 5 -12 10 -9 6 3 10 10 10 16 0 5 -4 9 -10 9 -5 0
-10 -7 -10 -16z"/>
<path d="M1403 7796 c-31 -15 -29 -28 2 -14 14 6 25 15 25 20 0 4 -1 7 -2 7
-2 -1 -13 -6 -25 -13z"/>
<path d="M675 7790 c-3 -5 3 -10 15 -10 12 0 18 5 15 10 -3 6 -10 10 -15 10
-5 0 -12 -4 -15 -10z"/>
<path d="M2680 7791 c0 -5 7 -12 16 -15 14 -5 15 -4 4 9 -14 17 -20 19 -20 6z"/>
<path d="M510 7776 c0 -9 5 -16 10 -16 6 0 10 4 10 9 0 6 -4 13 -10 16 -5 3
-10 -1 -10 -9z"/>
<path d="M480 7765 c7 -9 15 -13 17 -11 7 7 -7 26 -19 26 -6 0 -6 -6 2 -15z"/>
<path d="M630 7719 c0 -5 5 -7 10 -4 6 3 10 8 10 11 0 2 -4 4 -10 4 -5 0 -10
-5 -10 -11z"/>
<path d="M1759 7713 c-13 -16 -12 -17 4 -4 9 7 17 15 17 17 0 8 -8 3 -21 -13z"/>
<path d="M2250 7719 c0 -5 5 -7 10 -4 6 3 10 8 10 11 0 2 -4 4 -10 4 -5 0 -10
-5 -10 -11z"/>
<path d="M986 7689 c-8 -12 -19 -18 -25 -14 -6 3 -11 1 -11 -5 0 -20 43 -6 51
18 10 28 5 28 -15 1z"/>
<path d="M1503 7655 c0 -8 7 -15 15 -15 12 0 12 3 2 15 -7 8 -13 15 -15 15 -1
0 -2 -7 -2 -15z"/>
<path d="M2771 7654 c0 -11 3 -14 6 -6 3 7 2 16 -1 19 -3 4 -6 -2 -5 -13z"/>
<path d="M730 7650 c0 -5 9 -10 21 -10 11 0 17 5 14 10 -3 6 -13 10 -21 10 -8
0 -14 -4 -14 -10z"/>
<path d="M1568 7653 c7 -3 16 -2 19 1 4 3 -2 6 -13 5 -11 0 -14 -3 -6 -6z"/>
<path d="M455 7640 c3 -5 8 -10 11 -10 2 0 4 5 4 10 0 6 -5 10 -11 10 -5 0 -7
-4 -4 -10z"/>
<path d="M1825 7630 c3 -5 8 -10 11 -10 2 0 4 5 4 10 0 6 -5 10 -11 10 -5 0
-7 -4 -4 -10z"/>
<path d="M1128 7623 c7 -3 16 -2 19 1 4 3 -2 6 -13 5 -11 0 -14 -3 -6 -6z"/>
<path d="M2759 7612 c-7 -9 -9 -14 -5 -10 5 4 15 3 23 -3 10 -9 13 -8 13 4 0
24 -16 29 -31 9z"/>
<path d="M1017 7591 c-3 -11 0 -22 7 -24 6 -3 12 6 12 19 2 29 -12 32 -19 5z"/>
<path d="M1450 7600 c-9 -6 -10 -10 -3 -10 6 0 15 5 18 10 8 12 4 12 -15 0z"/>
<path d="M2513 7586 c4 -10 7 -20 7 -22 0 -2 4 -4 9 -4 14 0 6 33 -9 38 -9 3
-11 -1 -7 -12z"/>
<path d="M560 7569 c0 -5 11 -9 25 -9 14 0 25 2 25 4 0 2 -11 6 -25 8 -14 3
-25 1 -25 -3z"/>
<path d="M915 7570 c-3 -6 1 -7 9 -4 18 7 21 14 7 14 -6 0 -13 -4 -16 -10z"/>
<path d="M951 7564 c0 -11 3 -14 6 -6 3 7 2 16 -1 19 -3 4 -6 -2 -5 -13z"/>
<path d="M1537 7563 c-4 -3 -7 -11 -7 -17 0 -6 5 -5 12 2 6 6 9 14 7 17 -3 3
-9 2 -12 -2z"/>
<path d="M1635 7540 c3 -5 11 -10 16 -10 6 0 7 5 4 10 -3 6 -11 10 -16 10 -6
0 -7 -4 -4 -10z"/>
<path d="M2385 7530 c-3 -5 -1 -10 4 -10 6 0 11 5 11 10 0 6 -2 10 -4 10 -3 0
-8 -4 -11 -10z"/>
<path d="M2728 7528 c0 -7 -2 -17 -2 -23 -1 -5 -5 -16 -9 -22 -5 -8 -4 -13 2
-13 6 0 11 3 12 8 0 4 2 19 4 35 2 15 2 27 -1 27 -2 0 -5 -6 -6 -12z"/>
<path d="M1200 7509 c0 -5 5 -7 10 -4 6 3 10 8 10 11 0 2 -4 4 -10 4 -5 0 -10
-5 -10 -11z"/>
<path d="M1600 7505 c-7 -9 -11 -18 -8 -20 3 -3 11 1 18 10 7 9 11 18 8 20 -3
3 -11 -1 -18 -10z"/>
<path d="M2780 7509 c0 -5 5 -7 10 -4 6 3 10 8 10 11 0 2 -4 4 -10 4 -5 0 -10
-5 -10 -11z"/>
<path d="M1257 7489 c7 -7 15 -10 18 -7 3 3 -2 9 -12 12 -14 6 -15 5 -6 -5z"/>
<path d="M2798 7483 c6 -2 12 -11 12 -18 0 -8 4 -16 9 -19 4 -3 6 6 3 19 -2
15 -11 25 -21 24 -10 0 -11 -2 -3 -6z"/>
<path d="M1787 7469 c7 -7 15 -10 18 -7 3 3 -2 9 -12 12 -14 6 -15 5 -6 -5z"/>
<path d="M1672 7454 c-7 -8 -8 -14 -3 -14 10 0 25 19 20 25 -2 1 -10 -3 -17
-11z"/>
<path d="M1427 7445 c2 -7 -3 -19 -11 -28 -18 -17 -20 -27 -8 -27 5 0 15 15
24 33 13 26 13 34 3 34 -7 0 -11 -6 -8 -12z"/>
<path d="M2326 7434 c-4 -9 -4 -19 -1 -22 2 -3 7 3 11 12 4 9 4 19 1 22 -2 3
-7 -3 -11 -12z"/>
<path d="M525 7431 c-6 -11 9 -23 19 -14 9 9 7 23 -3 23 -6 0 -12 -4 -16 -9z"/>
<path d="M640 7420 c-13 -8 -12 -10 3 -10 9 0 17 5 17 10 0 12 -1 12 -20 0z"/>
<path d="M686 7415 c4 -8 8 -15 10 -15 2 0 4 7 4 15 0 8 -4 15 -10 15 -5 0 -7
-7 -4 -15z"/>
<path d="M1195 7420 c-3 -5 -1 -10 4 -10 6 0 11 5 11 10 0 6 -2 10 -4 10 -3 0
-8 -4 -11 -10z"/>
<path d="M2705 7420 c-3 -5 3 -10 14 -10 12 0 21 5 21 10 0 6 -6 10 -14 10 -8
0 -18 -4 -21 -10z"/>
<path d="M1080 7410 c0 -5 5 -10 11 -10 5 0 7 5 4 10 -3 6 -8 10 -11 10 -2 0
-4 -4 -4 -10z"/>
<path d="M2178 7403 c7 -3 16 -2 19 1 4 3 -2 6 -13 5 -11 0 -14 -3 -6 -6z"/>
<path d="M1205 7390 c-3 -6 1 -7 9 -4 18 7 21 14 7 14 -6 0 -13 -4 -16 -10z"/>
<path d="M2240 7390 c0 -5 5 -10 10 -10 6 0 10 5 10 10 0 6 -4 10 -10 10 -5 0
-10 -4 -10 -10z"/>
<path d="M712 7380 c6 -18 30 -20 34 -2 1 7 0 8 -3 2 -3 -7 -10 -7 -21 2 -13
11 -14 11 -10 -2z"/>
<path d="M2424 7368 c-4 -7 -3 -8 4 -4 6 4 21 2 32 -4 15 -8 20 -8 20 2 0 17
-46 22 -56 6z"/>
<path d="M462 7355 c-9 -11 -10 -20 -3 -33 9 -15 10 -15 11 4 0 11 5 25 12 32
7 7 8 12 3 12 -6 -1 -16 -7 -23 -15z"/>
<path d="M1135 7363 c11 -3 24 -10 28 -17 6 -7 7 -6 4 4 -2 8 -14 16 -28 17
-19 1 -20 1 -4 -4z"/>
<path d="M1420 7355 c5 -7 6 -16 2 -21 -4 -5 -3 -5 2 -1 15 12 15 34 0 34 -9
0 -11 -4 -4 -12z"/>
<path d="M1637 7354 c4 -10 0 -22 -9 -28 -14 -10 -14 -13 0 -25 13 -12 14 -12
10 0 -2 7 1 20 8 27 13 13 9 42 -7 42 -4 0 -6 -7 -2 -16z"/>
<path d="M2140 7360 c0 -5 5 -10 11 -10 5 0 7 5 4 10 -3 6 -8 10 -11 10 -2 0
-4 -4 -4 -10z"/>
<path d="M888 7353 c7 -3 16 -2 19 1 4 3 -2 6 -13 5 -11 0 -14 -3 -6 -6z"/>
<path d="M2610 7356 c0 -2 7 -7 16 -10 8 -3 12 -2 9 4 -6 10 -25 14 -25 6z"/>
<path d="M2720 7350 c0 -5 5 -10 11 -10 5 0 7 5 4 10 -3 6 -8 10 -11 10 -2 0
-4 -4 -4 -10z"/>
<path d="M735 7330 c3 -5 8 -10 11 -10 2 0 4 5 4 10 0 6 -5 10 -11 10 -5 0 -7
-4 -4 -10z"/>
<path d="M2230 7331 c0 -5 7 -11 14 -14 10 -4 13 -1 9 9 -6 15 -23 19 -23 5z"/>
<path d="M2550 7324 c0 -8 5 -12 10 -9 6 4 8 11 5 16 -9 14 -15 11 -15 -7z"/>
<path d="M772 7321 c-11 -7 -11 -9 2 -14 10 -4 16 -1 16 8 0 17 -1 17 -18 6z"/>
<path d="M1000 7320 c0 -5 5 -10 11 -10 5 0 7 5 4 10 -3 6 -8 10 -11 10 -2 0
-4 -4 -4 -10z"/>
<path d="M1886 7318 c3 -4 11 -5 19 -1 21 7 19 12 -4 10 -11 0 -18 -5 -15 -9z"/>
<path d="M572 7300 c0 -14 2 -19 5 -12 2 6 2 18 0 25 -3 6 -5 1 -5 -13z"/>
<path d="M1298 7313 c-10 -2 -18 -9 -18 -14 0 -15 43 -7 48 9 4 12 0 13 -30 5z"/>
<path d="M1340 7311 c0 -6 4 -12 8 -15 5 -3 9 1 9 9 0 8 -4 15 -9 15 -4 0 -8
-4 -8 -9z"/>
<path d="M2650 7305 c0 -16 16 -20 24 -6 3 5 -1 11 -9 15 -9 3 -15 0 -15 -9z"/>
<path d="M1380 7283 c0 -13 5 -23 10 -23 13 0 13 11 0 30 -8 12 -10 11 -10 -7z"/>
<path d="M1542 7280 c-12 -19 -11 -20 8 -8 11 7 20 16 20 20 0 15 -15 8 -28
-12z"/>
<path d="M1975 7290 c-3 -5 -1 -10 4 -10 6 0 11 5 11 10 0 6 -2 10 -4 10 -3 0
-8 -4 -11 -10z"/>
<path d="M1055 7281 c-3 -5 -1 -12 5 -16 5 -3 10 1 10 9 0 18 -6 21 -15 7z"/>
<path d="M2740 7286 c0 -6 60 -66 66 -66 2 0 4 10 4 23 0 13 5 28 12 35 15 15
8 15 -26 2 -16 -6 -27 -6 -31 0 -6 10 -25 14 -25 6z"/>
<path d="M1107 7254 c-26 -24 -28 -44 -5 -44 6 0 8 3 5 6 -3 4 5 15 18 26 24
19 33 38 17 38 -4 0 -20 -12 -35 -26z"/>
<path d="M2557 7269 c7 -7 15 -10 18 -7 3 3 -2 9 -12 12 -14 6 -15 5 -6 -5z"/>
<path d="M1760 7240 c0 -5 5 -10 10 -10 6 0 10 5 10 10 0 6 -4 10 -10 10 -5 0
-10 -4 -10 -10z"/>
<path d="M2703 7220 c0 -34 3 -36 21 -17 11 11 11 17 1 30 -17 24 -22 21 -22
-13z"/>
<path d="M1017 7234 c-3 -5 1 -14 8 -21 10 -10 15 -9 19 4 4 9 4 18 1 21 -3 3
-5 -1 -5 -9 0 -12 -2 -12 -9 0 -5 7 -11 9 -14 5z"/>
<path d="M1380 7230 c0 -5 5 -10 11 -10 5 0 7 5 4 10 -3 6 -8 10 -11 10 -2 0
-4 -4 -4 -10z"/>
<path d="M614 7210 c0 -10 6 -16 13 -13 7 3 13 9 13 13 0 4 -6 10 -13 13 -7 3
-13 -3 -13 -13z"/>
<path d="M1292 7209 c11 -17 10 -22 -6 -34 -10 -7 -15 -18 -11 -24 10 -17 25
-13 18 5 -4 10 1 17 16 21 26 7 26 8 1 33 -26 26 -34 26 -18 -1z"/>
<path d="M1310 7226 c0 -2 7 -7 16 -10 8 -3 12 -2 9 4 -6 10 -25 14 -25 6z"/>
<path d="M1422 7205 c1 -13 4 -22 7 -20 2 3 11 -1 20 -8 14 -10 14 -10 3 5
-10 12 -10 18 -1 23 8 6 7 10 -2 16 -23 14 -29 10 -27 -16z"/>
<path d="M2228 7223 c-10 -2 -18 -9 -18 -14 0 -13 12 -11 34 6 20 15 16 17
-16 8z"/>
<path d="M480 7205 c0 -8 5 -15 10 -15 6 0 10 7 10 15 0 8 -4 15 -10 15 -5 0
-10 -7 -10 -15z"/>
<path d="M1200 7206 c0 -8 4 -17 9 -20 5 -4 7 3 4 14 -6 23 -13 26 -13 6z"/>
<path d="M1570 7209 c0 -5 5 -7 10 -4 6 3 10 8 10 11 0 2 -4 4 -10 4 -5 0 -10
-5 -10 -11z"/>
<path d="M1240 7199 c0 -10 27 -19 34 -12 12 12 5 22 -14 20 -11 -1 -20 -4
-20 -8z"/>
<path d="M1360 7199 c0 -5 5 -7 10 -4 6 3 10 8 10 11 0 2 -4 4 -10 4 -5 0 -10
-5 -10 -11z"/>
<path d="M1063 7185 c0 -8 4 -12 9 -9 5 3 6 10 3 15 -9 13 -12 11 -12 -6z"/>
<path d="M691 7163 c1 -22 2 -23 6 -8 3 11 10 23 17 27 7 5 5 8 -6 8 -13 0
-18 -7 -17 -27z"/>
<path d="M1395 7180 c-3 -5 -1 -10 4 -10 6 0 11 5 11 10 0 6 -2 10 -4 10 -3 0
-8 -4 -11 -10z"/>
<path d="M2734 7169 c0 -11 5 -18 10 -16 16 5 18 24 4 30 -9 3 -14 -3 -14 -14z"/>
<path d="M734 7169 c-3 -6 -2 -15 3 -20 5 -5 9 -1 9 11 0 23 -2 24 -12 9z"/>
<path d="M2698 7173 c7 -3 16 -2 19 1 4 3 -2 6 -13 5 -11 0 -14 -3 -6 -6z"/>
<path d="M524 7159 c-7 -11 13 -29 31 -28 6 0 4 3 -3 6 -6 2 -10 9 -7 13 3 5
1 11 -4 14 -5 4 -13 1 -17 -5z"/>
<path d="M1371 7154 c0 -11 3 -14 6 -6 3 7 2 16 -1 19 -3 4 -6 -2 -5 -13z"/>
<path d="M2400 7160 c0 -5 5 -10 10 -10 6 0 10 5 10 10 0 6 -4 10 -10 10 -5 0
-10 -4 -10 -10z"/>
<path d="M875 7150 c3 -5 11 -10 16 -10 6 0 7 5 4 10 -3 6 -11 10 -16 10 -6 0
-7 -4 -4 -10z"/>
<path d="M1136 7144 c-11 -28 -7 -40 14 -40 16 0 17 3 6 16 -7 8 -11 21 -9 28
7 18 -4 15 -11 -4z"/>
<path d="M1730 7145 c-7 -9 -11 -17 -9 -20 3 -2 10 5 17 15 14 24 10 26 -8 5z"/>
<path d="M438 7140 c12 -5 22 -15 22 -21 0 -7 3 -9 6 -6 10 10 -16 37 -35 36
-11 0 -9 -3 7 -9z"/>
<path d="M1430 7140 c0 -6 -4 -8 -10 -5 -6 3 -7 -1 -3 -10 4 -11 8 -13 13 -5
3 6 14 8 23 4 24 -9 21 3 -3 16 -14 8 -20 8 -20 0z"/>
<path d="M2489 7133 c-12 -14 -12 -16 1 -11 8 3 20 -2 27 -11 6 -9 14 -14 16
-11 3 3 -3 15 -13 27 -16 21 -19 21 -31 6z"/>
<path d="M2710 7135 c14 -17 40 -20 40 -5 0 5 -7 7 -15 4 -8 -4 -15 -1 -15 5
0 6 -5 11 -11 11 -8 0 -8 -5 1 -15z"/>
<path d="M1075 7130 c-3 -6 1 -7 9 -4 18 7 21 14 7 14 -6 0 -13 -4 -16 -10z"/>
<path d="M1185 7130 c3 -5 8 -10 11 -10 2 0 4 5 4 10 0 6 -5 10 -11 10 -5 0
-7 -4 -4 -10z"/>
<path d="M1796 7123 c-9 -22 -3 -25 19 -10 15 12 16 15 2 20 -9 3 -18 -1 -21
-10z"/>
<path d="M2050 7131 c0 -5 5 -13 10 -16 6 -3 10 -2 10 4 0 5 -4 13 -10 16 -5
3 -10 2 -10 -4z"/>
<path d="M1641 7114 c0 -11 3 -14 6 -6 3 7 2 16 -1 19 -3 4 -6 -2 -5 -13z"/>
<path d="M2151 7114 c-1 -18 26 -37 34 -24 3 5 0 10 -9 10 -8 0 -17 6 -19 13
-4 7 -6 8 -6 1z"/>
<path d="M2585 7110 c3 -5 8 -10 11 -10 2 0 4 5 4 10 0 6 -5 10 -11 10 -5 0
-7 -4 -4 -10z"/>
<path d="M2228 7103 c7 -3 16 -2 19 1 4 3 -2 6 -13 5 -11 0 -14 -3 -6 -6z"/>
<path d="M545 7090 c-3 -5 1 -10 9 -10 9 0 16 5 16 10 0 6 -4 10 -9 10 -6 0
-13 -4 -16 -10z"/>
<path d="M590 7058 c0 -23 3 -39 6 -36 9 10 12 78 3 78 -5 0 -9 -19 -9 -42z"/>
<path d="M900 7096 c0 -2 7 -7 16 -10 8 -3 12 -2 9 4 -6 10 -25 14 -25 6z"/>
<path d="M630 7080 c0 -5 5 -10 10 -10 6 0 10 5 10 10 0 6 -4 10 -10 10 -5 0
-10 -4 -10 -10z"/>
<path d="M1001 7078 c0 -10 8 -22 19 -28 14 -7 20 -7 20 0 0 5 -6 10 -14 10
-8 0 -17 8 -19 18 -4 16 -5 16 -6 0z"/>
<path d="M1226 7074 c-4 -10 -1 -14 6 -12 15 5 23 28 10 28 -5 0 -13 -7 -16
-16z"/>
<path d="M1500 7081 c0 -5 5 -13 10 -16 6 -3 10 -2 10 4 0 5 -4 13 -10 16 -5
3 -10 2 -10 -4z"/>
<path d="M1576 7081 c-3 -5 1 -11 9 -14 9 -4 12 -1 8 9 -6 16 -10 17 -17 5z"/>
<path d="M1720 7069 c0 -5 5 -7 10 -4 6 3 10 8 10 11 0 2 -4 4 -10 4 -5 0 -10
-5 -10 -11z"/>
<path d="M726 7061 c-3 -5 1 -11 9 -14 9 -4 12 -1 8 9 -6 16 -10 17 -17 5z"/>
<path d="M1468 7063 c7 -3 16 -2 19 1 4 3 -2 6 -13 5 -11 0 -14 -3 -6 -6z"/>
<path d="M555 7050 c-3 -5 -1 -10 4 -10 6 0 11 5 11 10 0 6 -2 10 -4 10 -3 0
-8 -4 -11 -10z"/>
<path d="M809 7049 c-12 -7 -11 -9 3 -9 9 0 18 -6 21 -12 2 -7 7 -11 10 -8 3
3 0 13 -7 22 -8 11 -17 14 -27 7z"/>
<path d="M1296 7047 c3 -10 9 -15 12 -12 3 3 0 11 -7 18 -10 9 -11 8 -5 -6z"/>
<path d="M1348 7053 c7 -3 16 -2 19 1 4 3 -2 6 -13 5 -11 0 -14 -3 -6 -6z"/>
<path d="M1846 7041 c-4 -7 -5 -15 -2 -18 9 -9 19 4 14 18 -4 11 -6 11 -12 0z"/>
<path d="M1426 7025 c-3 -8 -1 -15 3 -15 5 0 17 -3 26 -6 15 -6 15 -4 4 15
-16 25 -25 27 -33 6z"/>
<path d="M886 7015 c-3 -8 -1 -15 4 -15 6 0 10 7 10 15 0 8 -2 15 -4 15 -2 0
-6 -7 -10 -15z"/>
<path d="M1482 7010 c13 -20 28 -27 28 -12 0 10 -22 32 -32 32 -5 0 -3 -9 4
-20z"/>
<path d="M1715 7020 c-3 -5 -1 -10 4 -10 6 0 11 5 11 10 0 6 -2 10 -4 10 -3 0
-8 -4 -11 -10z"/>
<path d="M1320 7009 c0 -5 5 -7 10 -4 6 3 10 8 10 11 0 2 -4 4 -10 4 -5 0 -10
-5 -10 -11z"/>
<path d="M1549 7004 c19 -8 36 -12 39 -9 5 5 -43 25 -61 25 -7 -1 3 -7 22 -16z"/>
<path d="M1658 7013 c6 -2 18 -2 25 0 6 3 1 5 -13 5 -14 0 -19 -2 -12 -5z"/>
<path d="M480 6995 c-12 -15 -6 -35 11 -35 6 0 8 4 4 9 -3 5 -1 12 5 16 12 8
13 25 1 25 -5 0 -14 -7 -21 -15z"/>
<path d="M835 7000 c3 -5 8 -10 11 -10 2 0 4 5 4 10 0 6 -5 10 -11 10 -5 0 -7
-4 -4 -10z"/>
<path d="M990 6994 c0 -13 3 -14 15 -4 8 7 22 10 30 6 8 -3 15 -1 15 4 0 6
-13 10 -30 10 -21 0 -30 -5 -30 -16z"/>
<path d="M1280 6995 c7 -9 15 -13 17 -11 7 7 -7 26 -19 26 -6 0 -6 -6 2 -15z"/>
<path d="M1796 7002 c-3 -5 1 -9 9 -9 8 0 12 4 9 9 -3 4 -7 8 -9 8 -2 0 -6 -4
-9 -8z"/>
<path d="M2468 7003 c7 -3 16 -2 19 1 4 3 -2 6 -13 5 -11 0 -14 -3 -6 -6z"/>
<path d="M1420 6994 c0 -12 26 -30 38 -26 10 3 8 8 -5 18 -19 14 -33 18 -33 8z"/>
<path d="M1613 6993 c-24 -8 -13 -22 16 -21 15 1 34 -3 42 -7 8 -5 7 0 -4 12
-17 20 -31 23 -54 16z"/>
<path d="M2760 6985 c-10 -12 -10 -15 4 -15 9 0 16 7 16 15 0 8 -2 15 -4 15
-2 0 -9 -7 -16 -15z"/>
<path d="M2320 6980 c0 -5 5 -10 10 -10 6 0 10 5 10 10 0 6 -4 10 -10 10 -5 0
-10 -4 -10 -10z"/>
<path d="M1296 6961 c-4 -7 -5 -15 -2 -18 9 -9 19 4 14 18 -4 11 -6 11 -12 0z"/>
<path d="M1880 6961 c0 -5 5 -13 10 -16 6 -3 10 -2 10 4 0 5 -4 13 -10 16 -5
3 -10 2 -10 -4z"/>
<path d="M1958 6963 c7 -3 16 -2 19 1 4 3 -2 6 -13 5 -11 0 -14 -3 -6 -6z"/>
<path d="M2005 6960 c-3 -5 -1 -10 4 -10 6 0 11 5 11 10 0 6 -2 10 -4 10 -3 0
-8 -4 -11 -10z"/>
<path d="M650 6950 c0 -5 9 -10 21 -10 11 0 17 5 14 10 -3 6 -13 10 -21 10 -8
0 -14 -4 -14 -10z"/>
<path d="M764 6945 c-17 -13 -17 -14 -2 -15 9 0 20 5 23 11 11 17 0 20 -21 4z"/>
<path d="M1170 6946 c0 -12 -34 -30 -52 -27 -16 2 -7 -17 10 -22 9 -2 25 -8
35 -12 10 -4 17 -3 17 5 0 6 -4 8 -10 5 -5 -3 -10 1 -10 11 0 12 6 15 24 12
24 -5 24 -4 9 19 -18 26 -23 29 -23 9z"/>
<path d="M1330 6948 c0 -7 5 -20 10 -28 8 -12 10 -9 10 13 0 15 -4 27 -10 27
-5 0 -10 -6 -10 -12z"/>
<path d="M421 6934 c0 -11 3 -14 6 -6 3 7 2 16 -1 19 -3 4 -6 -2 -5 -13z"/>
<path d="M1535 6941 c3 -5 -4 -12 -15 -14 -18 -4 -18 -5 2 -3 22 1 39 26 18
26 -6 0 -9 -4 -5 -9z"/>
<path d="M2195 6940 c-3 -5 -1 -10 4 -10 6 0 11 5 11 10 0 6 -2 10 -4 10 -3 0
-8 -4 -11 -10z"/>
<path d="M2375 6940 c3 -5 8 -10 11 -10 2 0 4 5 4 10 0 6 -5 10 -11 10 -5 0
-7 -4 -4 -10z"/>
<path d="M2260 6930 c0 -5 5 -10 10 -10 6 0 10 5 10 10 0 6 -4 10 -10 10 -5 0
-10 -4 -10 -10z"/>
<path d="M2465 6930 c3 -5 -1 -10 -7 -13 -7 -2 -10 -8 -6 -12 4 -4 17 0 30 9
12 9 20 16 18 17 -3 0 -13 2 -23 4 -9 2 -15 0 -12 -5z"/>
<path d="M2813 6925 c0 -8 4 -12 9 -9 5 3 6 10 3 15 -9 13 -12 11 -12 -6z"/>
<path d="M559 6913 c-13 -17 -13 -17 6 -3 11 8 22 16 24 17 2 2 0 3 -6 3 -6 0
-17 -8 -24 -17z"/>
<path d="M1239 6921 c8 -5 11 -16 8 -25 -4 -9 -1 -15 6 -13 7 1 11 -4 10 -10
-2 -7 4 -13 12 -13 8 0 15 -5 15 -11 0 -5 4 -8 9 -5 5 3 9 17 9 32 0 14 -4 21
-8 15 -7 -13 -40 -4 -40 10 0 5 8 9 17 9 26 0 6 13 -24 16 -19 2 -23 0 -14 -5z"/>
<path d="M2590 6911 c0 -5 5 -13 10 -16 6 -3 10 -2 10 4 0 5 -4 13 -10 16 -5
3 -10 2 -10 -4z"/>
<path d="M507 6903 c-4 -3 -7 -11 -7 -17 0 -6 5 -5 12 2 6 6 9 14 7 17 -3 3
-9 2 -12 -2z"/>
<path d="M783 6903 c-18 -7 -16 -41 2 -59 13 -13 14 -12 9 14 -5 23 -1 30 18
39 21 11 21 12 3 12 -11 -1 -26 -3 -32 -6z"/>
<path d="M1454 6895 c3 -8 0 -15 -7 -15 -8 0 -8 -3 2 -9 8 -5 10 -14 5 -22 -6
-11 -4 -11 10 0 13 11 14 16 4 22 -9 6 -5 9 12 10 17 1 19 3 8 6 -10 2 -18 9
-18 14 0 5 -5 9 -11 9 -6 0 -9 -7 -5 -15z"/>
<path d="M1807 6903 c-14 -14 -6 -23 21 -22 16 0 21 3 12 6 -8 3 -18 10 -21
15 -3 4 -8 5 -12 1z"/>
<path d="M2716 6895 c-3 -8 -1 -15 4 -15 6 0 10 7 10 15 0 8 -2 15 -4 15 -2 0
-6 -7 -10 -15z"/>
<path d="M985 6878 c14 -11 33 -17 43 -15 13 4 12 5 -5 6 -14 1 -20 6 -18 14
3 7 -4 13 -20 13 l-25 2 25 -20z"/>
<path d="M853 6875 c0 -8 4 -12 9 -9 5 3 6 10 3 15 -9 13 -12 11 -12 -6z"/>
<path d="M2616 6881 c-4 -5 3 -7 14 -4 23 6 26 13 6 13 -8 0 -17 -4 -20 -9z"/>
<path d="M420 6870 c0 -5 5 -10 11 -10 5 0 7 5 4 10 -3 6 -8 10 -11 10 -2 0
-4 -4 -4 -10z"/>
<path d="M646 6871 c-4 -5 -2 -12 3 -15 5 -4 12 -2 15 3 4 5 2 12 -3 15 -5 4
-12 2 -15 -3z"/>
<path d="M966 6871 c-4 -5 -2 -12 3 -15 5 -4 12 -2 15 3 4 5 2 12 -3 15 -5 4
-12 2 -15 -3z"/>
<path d="M1343 6850 c0 -17 3 -27 6 -22 3 5 11 11 17 13 7 3 5 10 -6 21 -16
17 -17 16 -17 -12z"/>
<path d="M1410 6871 c0 -5 5 -13 10 -16 6 -3 10 -2 10 4 0 5 -4 13 -10 16 -5
3 -10 2 -10 -4z"/>
<path d="M1090 6840 c0 -5 5 -10 11 -10 5 0 7 5 4 10 -3 6 -8 10 -11 10 -2 0
-4 -4 -4 -10z"/>
<path d="M2121 6834 c0 -11 3 -14 6 -6 3 7 2 16 -1 19 -3 4 -6 -2 -5 -13z"/>
<path d="M2715 6840 c3 -5 8 -10 11 -10 2 0 4 5 4 10 0 6 -5 10 -11 10 -5 0
-7 -4 -4 -10z"/>
<path d="M1556 6833 c-10 -10 -7 -25 4 -18 6 3 10 -3 10 -14 0 -12 4 -21 9
-21 13 0 8 49 -6 54 -6 3 -14 2 -17 -1z"/>
<path d="M1650 6824 c0 -8 5 -12 10 -9 6 4 8 11 5 16 -9 14 -15 11 -15 -7z"/>
<path d="M680 6820 c0 -5 5 -10 10 -10 6 0 10 5 10 10 0 6 -4 10 -10 10 -5 0
-10 -4 -10 -10z"/>
<path d="M710 6820 c0 -5 5 -10 11 -10 5 0 7 5 4 10 -3 6 -8 10 -11 10 -2 0
-4 -4 -4 -10z"/>
<path d="M900 6821 c0 -6 4 -13 10 -16 6 -3 7 1 4 9 -7 18 -14 21 -14 7z"/>
<path d="M1020 6810 c0 -5 -7 -10 -15 -10 -8 0 -15 -4 -15 -8 0 -15 24 -9 44
10 17 16 18 18 3 18 -9 0 -17 -4 -17 -10z"/>
<path d="M1227 6814 c-8 -8 1 -24 14 -24 5 0 9 7 9 15 0 15 -12 20 -23 9z"/>
<path d="M1174 6793 c10 -11 36 -12 36 -2 0 5 -10 9 -22 9 -12 0 -18 -3 -14
-7z"/>
<path d="M1492 6795 c9 -9 68 -13 62 -4 -3 5 -19 9 -36 9 -17 0 -29 -2 -26 -5z"/>
<path d="M2510 6789 c0 -5 5 -7 10 -4 6 3 10 8 10 11 0 2 -4 4 -10 4 -5 0 -10
-5 -10 -11z"/>
<path d="M2720 6792 c0 -7 -7 -12 -16 -12 -8 0 -12 -5 -8 -11 4 -7 11 -6 22 5
9 8 13 19 9 22 -4 4 -7 2 -7 -4z"/>
<path d="M2026 6763 c-6 -14 -5 -15 5 -6 7 7 10 15 7 18 -3 3 -9 -2 -12 -12z"/>
<path d="M1287 6763 c-4 -3 -7 -11 -7 -17 0 -6 5 -5 12 2 6 6 9 14 7 17 -3 3
-9 2 -12 -2z"/>
<path d="M1457 6749 c4 -13 8 -18 11 -10 2 7 -1 18 -6 23 -8 8 -9 4 -5 -13z"/>
<path d="M2730 6755 c0 -16 16 -20 24 -6 3 5 -1 11 -9 15 -9 3 -15 0 -15 -9z"/>
<path d="M730 6750 c0 -5 5 -10 11 -10 5 0 7 5 4 10 -3 6 -8 10 -11 10 -2 0
-4 -4 -4 -10z"/>
<path d="M475 6740 c-3 -5 -1 -10 4 -10 6 0 11 5 11 10 0 6 -2 10 -4 10 -3 0
-8 -4 -11 -10z"/>
<path d="M1667 6743 c-11 -10 -8 -43 3 -43 6 0 10 11 10 25 0 26 -2 29 -13 18z"/>
<path d="M2340 6740 c19 -13 30 -13 30 0 0 6 -10 10 -22 10 -19 0 -20 -2 -8
-10z"/>
<path d="M970 6720 c0 -5 5 -10 11 -10 5 0 7 5 4 10 -3 6 -8 10 -11 10 -2 0
-4 -4 -4 -10z"/>
<path d="M2810 6721 c0 -6 4 -13 10 -16 6 -3 7 1 4 9 -7 18 -14 21 -14 7z"/>
<path d="M556 6711 c-4 -7 -5 -15 -2 -18 9 -9 19 4 14 18 -4 11 -6 11 -12 0z"/>
<path d="M800 6715 c0 -10 29 -24 34 -17 3 6 -3 12 -14 15 -11 3 -20 4 -20 2z"/>
<path d="M903 6703 c-7 -3 -13 -9 -13 -14 0 -12 37 -12 44 0 7 11 -14 20 -31
14z"/>
<path d="M1980 6700 c0 -5 5 -10 10 -10 6 0 10 5 10 10 0 6 -4 10 -10 10 -5 0
-10 -4 -10 -10z"/>
<path d="M1025 6680 c-3 -5 -1 -10 4 -10 6 0 11 5 11 10 0 6 -2 10 -4 10 -3 0
-8 -4 -11 -10z"/>
<path d="M1080 6679 c0 -5 5 -7 10 -4 6 3 10 8 10 11 0 2 -4 4 -10 4 -5 0 -10
-5 -10 -11z"/>
<path d="M1046 6664 c-9 -24 -2 -26 12 -4 7 11 8 20 3 20 -5 0 -12 -7 -15 -16z"/>
<path d="M525 6660 c-3 -5 1 -10 10 -10 9 0 13 5 10 10 -3 6 -8 10 -10 10 -2
0 -7 -4 -10 -10z"/>
<path d="M610 6660 c0 -5 5 -10 10 -10 6 0 10 5 10 10 0 6 -4 10 -10 10 -5 0
-10 -4 -10 -10z"/>
<path d="M1600 6666 c0 -2 7 -7 16 -10 8 -3 12 -2 9 4 -6 10 -25 14 -25 6z"/>
<path d="M1254 6640 c2 -23 46 -26 45 -3 0 10 -3 13 -6 6 -2 -7 -11 -13 -18
-13 -7 0 -15 6 -18 13 -2 7 -3 6 -3 -3z"/>
<path d="M2340 6640 c0 -5 5 -10 11 -10 5 0 7 5 4 10 -3 6 -8 10 -11 10 -2 0
-4 -4 -4 -10z"/>
<path d="M615 6630 c-19 -8 -19 -9 3 -9 12 -1 22 4 22 9 0 6 -1 10 -2 9 -2 0
-12 -4 -23 -9z"/>
<path d="M2170 6630 c0 -5 5 -10 11 -10 5 0 7 5 4 10 -3 6 -8 10 -11 10 -2 0
-4 -4 -4 -10z"/>
<path d="M2295 6630 c-3 -6 1 -7 9 -4 18 7 21 14 7 14 -6 0 -13 -4 -16 -10z"/>
<path d="M511 6621 c-7 -5 -12 -13 -10 -18 2 -5 12 -1 22 9 18 19 12 24 -12 9z"/>
<path d="M710 6617 c0 -23 11 -47 22 -47 14 0 5 53 -9 58 -7 2 -13 -3 -13 -11z"/>
<path d="M1100 6620 c0 -5 5 -10 10 -10 6 0 10 5 10 10 0 6 -4 10 -10 10 -5 0
-10 -4 -10 -10z"/>
<path d="M2505 6620 c-3 -5 -1 -10 4 -10 6 0 11 5 11 10 0 6 -2 10 -4 10 -3 0
-8 -4 -11 -10z"/>
<path d="M1720 6611 c0 -6 4 -13 10 -16 6 -3 7 1 4 9 -7 18 -14 21 -14 7z"/>
<path d="M945 6600 c-3 -5 1 -10 10 -10 9 0 13 5 10 10 -3 6 -8 10 -10 10 -2
0 -7 -4 -10 -10z"/>
<path d="M1100 6580 c0 -5 5 -10 10 -10 6 0 10 5 10 10 0 6 -4 10 -10 10 -5 0
-10 -4 -10 -10z"/>
<path d="M880 6560 c0 -12 47 -13 53 -2 3 4 -8 8 -24 9 -16 1 -29 -2 -29 -7z"/>
<path d="M1310 6560 c0 -5 5 -10 10 -10 6 0 10 5 10 10 0 6 -4 10 -10 10 -5 0
-10 -4 -10 -10z"/>
<path d="M630 6550 c0 -5 5 -10 10 -10 6 0 10 5 10 10 0 6 -4 10 -10 10 -5 0
-10 -4 -10 -10z"/>
<path d="M1810 6544 c0 -8 5 -12 10 -9 6 4 8 11 5 16 -9 14 -15 11 -15 -7z"/>
<path d="M2705 6539 c-4 -6 -5 -13 -2 -16 7 -7 27 6 27 18 0 12 -17 12 -25 -2z"/>
<path d="M2285 6510 c3 -5 11 -10 16 -10 6 0 7 5 4 10 -3 6 -11 10 -16 10 -6
0 -7 -4 -4 -10z"/>
<path d="M2425 6510 c3 -5 8 -10 11 -10 2 0 4 5 4 10 0 6 -5 10 -11 10 -5 0
-7 -4 -4 -10z"/>
<path d="M2540 6511 c0 -12 29 -23 41 -15 18 10 9 24 -16 24 -14 0 -25 -4 -25
-9z"/>
<path d="M2610 6510 c0 -5 5 -10 10 -10 6 0 10 5 10 10 0 6 -4 10 -10 10 -5 0
-10 -4 -10 -10z"/>
<path d="M2500 6501 c0 -5 5 -13 10 -16 6 -3 10 -2 10 4 0 5 -4 13 -10 16 -5
3 -10 2 -10 -4z"/>
<path d="M1880 6491 c0 -6 5 -13 10 -16 6 -3 10 1 10 9 0 9 -4 16 -10 16 -5 0
-10 -4 -10 -9z"/>
<path d="M1066 6474 c-4 -9 -4 -19 -2 -21 8 -8 26 8 26 23 0 19 -16 18 -24 -2z"/>
<path d="M1375 6480 c-3 -5 -1 -10 4 -10 6 0 11 5 11 10 0 6 -2 10 -4 10 -3 0
-8 -4 -11 -10z"/>
<path d="M2400 6476 c7 -7 14 -6 21 1 9 9 7 12 -9 10 -14 -1 -18 -5 -12 -11z"/>
<path d="M2450 6474 c0 -8 5 -12 10 -9 6 3 10 10 10 16 0 5 -4 9 -10 9 -5 0
-10 -7 -10 -16z"/>
<path d="M890 6460 c0 -5 5 -10 10 -10 6 0 10 5 10 10 0 6 -4 10 -10 10 -5 0
-10 -4 -10 -10z"/>
<path d="M2705 6450 c-3 -5 -1 -10 4 -10 6 0 11 5 11 10 0 6 -2 10 -4 10 -3 0
-8 -4 -11 -10z"/>
<path d="M1465 6440 c-3 -5 -1 -10 4 -10 6 0 11 5 11 10 0 6 -2 10 -4 10 -3 0
-8 -4 -11 -10z"/>
<path d="M2400 6435 c0 -10 9 -14 25 -13 28 3 33 13 9 22 -25 10 -34 7 -34 -9z"/>
<path d="M640 6434 c0 -10 28 -33 33 -27 3 3 0 12 -8 19 -14 15 -25 18 -25 8z"/>
<path d="M1737 6406 c-4 -10 -1 -13 9 -9 15 6 19 23 5 23 -5 0 -11 -7 -14 -14z"/>
<path d="M1816 6402 c-2 -4 -1 -14 4 -22 7 -12 12 -12 22 -2 9 9 8 12 -6 12
-9 0 -14 5 -11 10 3 6 4 10 1 10 -3 0 -7 -4 -10 -8z"/>
<path d="M2180 6389 c0 -5 5 -7 10 -4 6 3 10 8 10 11 0 2 -4 4 -10 4 -5 0 -10
-5 -10 -11z"/>
<path d="M650 6380 c0 -5 5 -10 11 -10 5 0 7 5 4 10 -3 6 -8 10 -11 10 -2 0
-4 -4 -4 -10z"/>
<path d="M1486 6383 c5 -5 12 -12 16 -18 4 -6 8 -2 8 8 0 9 -7 17 -17 17 -9 0
-12 -3 -7 -7z"/>
<path d="M2730 6361 c-5 -11 -10 -27 -10 -36 0 -12 -5 -15 -17 -10 -14 5 -15
3 -6 -6 15 -15 33 -3 33 21 0 10 7 26 16 34 8 9 11 16 5 16 -6 0 -15 -9 -21
-19z"/>
<path d="M1301 6359 c0 -8 6 -24 14 -35 13 -17 14 -17 15 -1 0 9 -4 17 -9 17
-5 0 -12 8 -14 18 -4 13 -5 14 -6 1z"/>
<path d="M1390 6355 c0 -8 5 -15 10 -15 6 0 10 7 10 15 0 8 -4 15 -10 15 -5 0
-10 -7 -10 -15z"/>
<path d="M1420 6356 c0 -8 4 -17 9 -20 5 -4 7 3 4 14 -6 23 -13 26 -13 6z"/>
<path d="M1355 6350 c-3 -5 -2 -10 4 -10 5 0 13 5 16 10 3 6 2 10 -4 10 -5 0
-13 -4 -16 -10z"/>
<path d="M2745 6339 c-4 -6 -5 -13 -2 -16 7 -7 27 6 27 18 0 12 -17 12 -25 -2z"/>
<path d="M957 6311 c-4 -17 -3 -21 5 -13 5 5 8 16 6 23 -3 8 -7 3 -11 -10z"/>
<path d="M1310 6290 c0 -5 5 -10 10 -10 6 0 10 5 10 10 0 6 -4 10 -10 10 -5 0
-10 -4 -10 -10z"/>
<path d="M2390 6289 c0 -5 5 -7 10 -4 6 3 10 8 10 11 0 2 -4 4 -10 4 -5 0 -10
-5 -10 -11z"/>
<path d="M849 8683 c-18 -4 -15 -43 3 -43 6 0 8 6 5 14 -3 8 -1 17 6 19 17 6
5 14 -14 10z"/>
</g>
</svg>
